<?xml version="1.0" standalone="no"?>
<!DOCTYPE svg PUBLIC "-//W3C//DTD SVG 20010904//EN"
 "http://www.w3.org/TR/2001/REC-SVG-20010904/DTD/svg10.dtd">
<svg version="1.0" xmlns="http://www.w3.org/2000/svg"
 width="200.000000pt" height="200.000000pt" viewBox="0 0 200.000000 200.000000"
 preserveAspectRatio="xMidYMid meet">
<g transform="translate(0.000000,200.000000) scale(0.100000,-0.100000)"
fill="#135846" stroke="none">
<path fill='#E23428' d="M948 1935 c-29 -58 -36 -65 -68 -71 -136 -21 -144 -34 -72 -107 l53
-54 -12 -67 c-10 -59 -9 -70 5 -84 14 -15 21 -13 81 18 l65 35 65 -35 c60 -31
67 -33 81 -18 14 14 15 25 5 84 l-12 67 53 54 c72 73 64 86 -72 107 -32 6 -39
13 -68 71 -23 48 -37 65 -52 65 -15 0 -29 -17 -52 -65z"/>
<path fill='#E23428' d="M553 1744 c-3 -8 -16 -20 -30 -25 -31 -12 -39 -36 -19 -58 9 -10 14
-25 11 -33 -10 -24 21 -49 48 -39 14 6 30 5 41 -1 22 -12 46 6 46 36 0 12 5
27 11 33 17 17 7 57 -16 62 -11 2 -26 12 -33 22 -16 23 -50 25 -59 3z"/>
<path fill='#E23428' d="M1388 1741 c-7 -10 -22 -20 -33 -22 -23 -5 -33 -45 -16 -62 6 -6 11
-21 11 -33 0 -30 24 -48 46 -36 11 6 27 7 41 1 27 -10 58 15 48 39 -3 8 2 23
11 33 20 22 12 46 -19 58 -14 5 -27 17 -30 25 -9 22 -43 20 -59 -3z"/>
<path fill='#E23428' d="M264 1576 c-3 -8 -19 -19 -35 -25 -32 -11 -39 -40 -14 -61 8 -7 12
-16 9 -21 -3 -5 -3 -18 1 -28 5 -17 15 -19 68 -18 61 2 62 2 65 32 2 17 8 34
13 40 17 17 9 45 -16 55 -14 5 -28 17 -31 25 -8 19 -53 20 -60 1z"/>
<path fill='#E23428' d="M1679 1574 c-7 -9 -23 -20 -36 -25 -23 -9 -31 -37 -14 -54 5 -6 11
-23 13 -40 3 -30 4 -30 65 -32 53 -2 63 1 68 18 4 10 4 23 1 28 -3 5 1 14 9
21 25 21 18 50 -14 61 -16 6 -32 17 -35 25 -7 19 -40 18 -57 -2z"/>
<path d="M651 1392 c-19 -9 -44 -30 -55 -45 -21 -28 -21 -39 -24 -661 -2 -412
1 -642 7 -659 10 -27 11 -27 114 -27 67 0 107 4 115 12 9 9 12 70 12 213 0
143 3 204 12 213 17 17 319 17 336 0 9 -9 12 -70 12 -213 0 -143 3 -204 12
-213 8 -8 48 -12 115 -12 103 0 104 0 114 27 6 17 9 247 7 659 -3 622 -3 633
-24 661 -45 61 -57 63 -404 63 -280 0 -319 -2 -349 -18z m567 -351 c2 -13 -2
-28 -10 -32 -15 -10 -388 -12 -412 -3 -16 6 -22 45 -9 58 4 3 102 5 217 4
l211 -3 3 -24z m-60 -303 c16 -16 15 -23 -4 -42 -23 -23 -285 -23 -308 0 -19
19 -20 26 -4 42 17 17 299 17 316 0z"/>
<path d="M209 891 l-39 -39 0 -378 c0 -358 1 -381 20 -411 31 -52 65 -63 188
-63 71 0 112 4 120 12 9 9 12 122 12 449 0 241 -3 444 -6 453 -5 13 -26 16
-131 16 l-125 0 -39 -39z m179 -273 c14 -14 16 -156 3 -176 -4 -8 -19 -12 -32
-10 -23 3 -24 7 -27 87 -2 46 -1 90 2 98 7 16 38 17 54 1z"/>
<path d="M1496 914 c-3 -9 -6 -212 -6 -453 0 -327 3 -440 12 -449 8 -8 49 -12
120 -12 123 0 157 11 188 63 19 30 20 53 20 411 l0 378 -39 39 -39 39 -125 0
c-105 0 -126 -3 -131 -16z m169 -384 c0 -93 -1 -95 -24 -98 -33 -5 -41 12 -41
99 0 80 10 102 45 97 18 -3 20 -10 20 -98z"/>
<path d="M892 368 c-17 -17 -17 -339 0 -356 16 -16 200 -16 216 0 17 17 17
339 0 356 -16 16 -200 16 -216 0z"/>
</g>
</svg>
